<?xml version="1.0" standalone="no"?>
<!DOCTYPE svg PUBLIC "-//W3C//DTD SVG 20010904//EN"
 "http://www.w3.org/TR/2001/REC-SVG-20010904/DTD/svg10.dtd">
<svg version="1.0" xmlns="http://www.w3.org/2000/svg"
 width="959.000000pt" height="959.000000pt" viewBox="0 0 959.000000 959.000000"
 preserveAspectRatio="xMidYMid meet">
<metadata>
Created by potrace 1.15, written by Peter Selinger 2001-2017
</metadata>
<g transform="translate(0.000000,959.000000) scale(0.100000,-0.100000)"
fill="#000000" stroke="none">
<path d="M0 4795 l0 -4795 4795 0 4795 0 0 4795 0 4795 -4795 0 -4795 0 0
-4795z m5196 1203 c50 -22 95 -62 115 -100 17 -34 19 -62 19 -313 0 -151 3
-275 6 -275 4 0 21 9 38 19 55 34 189 83 266 97 334 60 663 -65 866 -328 24
-31 44 -59 44 -62 0 -3 12 -27 28 -53 32 -56 68 -144 77 -190 4 -18 9 -33 13
-33 3 0 117 110 252 243 231 230 308 295 407 346 246 124 563 122 803 -7 97
-52 140 -84 214 -159 190 -193 278 -444 247 -708 -20 -173 -58 -275 -157 -416
-83 -119 -222 -234 -352 -291 -320 -142 -699 -78 -954 161 -78 73 -167 196
-203 279 l-19 44 160 159 c87 87 164 157 169 156 6 -2 13 -29 17 -60 15 -117
90 -248 182 -316 153 -113 334 -130 501 -47 154 76 265 253 265 420 0 211
-152 408 -355 462 -67 18 -185 18 -248 -1 -118 -35 -145 -58 -685 -596 -284
-284 -546 -537 -582 -564 -131 -95 -269 -150 -427 -167 -232 -26 -460 42 -644
190 -176 141 -288 339 -320 562 -4 30 -8 356 -8 723 -1 582 1 672 15 705 42
101 162 158 250 120z m-2991 -573 c191 -44 376 -154 460 -274 26 -37 30 -52
30 -104 0 -54 -5 -69 -34 -111 -35 -51 -111 -96 -163 -96 -40 0 -107 33 -163
79 -235 198 -575 145 -726 -114 -46 -79 -71 -175 -66 -248 2 -34 6 -69 9 -77
2 -8 8 -31 12 -50 25 -108 134 -234 248 -289 148 -70 333 -57 468 33 25 16
275 259 556 539 282 280 538 528 569 552 107 79 242 138 370 161 428 75 845
-167 984 -573 39 -115 55 -217 48 -328 -20 -368 -260 -681 -607 -793 -177 -58
-377 -55 -557 6 -199 69 -394 236 -485 417 -49 98 -58 80 118 256 87 88 164
159 171 159 9 0 13 -15 13 -44 0 -65 39 -168 89 -236 171 -233 509 -262 710
-61 152 152 189 351 100 538 -85 179 -265 285 -458 270 -183 -14 -178 -10
-808 -637 -481 -479 -547 -540 -621 -583 -215 -126 -459 -158 -694 -93 -375
105 -638 451 -638 838 0 128 30 269 80 373 35 74 105 182 148 229 61 66 182
152 277 197 89 42 128 53 285 83 45 8 204 -2 275 -19z"/>
<path d="M5665 5020 c-79 -27 -115 -48 -173 -104 -125 -118 -172 -249 -151
-418 24 -194 190 -364 389 -400 42 -7 83 -7 141 1 200 27 348 161 401 361 61
234 -84 487 -321 560 -80 25 -214 25 -286 0z"/>
</g>
</svg>
